HIERARCHY
ROOT Hips
{
	OFFSET 0.000000 88.474243 0.000000
	CHANNELS 6 Xposition Yposition Zposition Zrotation Yrotation Xrotation 
	JOINT Hips_Spine
	{
		OFFSET 0.000000 0.000000 0.000000
		CHANNELS 3 Zrotation Yrotation Xrotation
		JOINT Spine
		{
			OFFSET 0.005100 8.711998 -0.691000
			CHANNELS 3 Zrotation Yrotation Xrotation
			JOINT Spine1
			{
				OFFSET -0.009200 8.660301 -1.275000
				CHANNELS 3 Zrotation Yrotation Xrotation
				JOINT Spine2
				{
					OFFSET 0.006300 9.852501 -1.857000
					CHANNELS 3 Zrotation Yrotation Xrotation
					JOINT Spine2_Neck
					{
						OFFSET 0.000000 0.000000 0.000000
						CHANNELS 3 Zrotation Yrotation Xrotation
						JOINT Neck
						{
							OFFSET 0.016300 11.420799 -0.263300
							CHANNELS 3 Zrotation Yrotation Xrotation
							End Site #name: Head
							{
								OFFSET -0.019200 9.262405 2.362500
							}
						}
					}
					JOINT Spine2_LeftShoulder
					{
						OFFSET 0.000000 0.000000 0.000000
						CHANNELS 3 Zrotation Yrotation Xrotation
						JOINT LeftShoulder
						{
							OFFSET 5.616900 6.732201 -0.345700
							CHANNELS 3 Zrotation Yrotation Xrotation
							JOINT LeftArm
							{
								OFFSET 10.664888 -0.183372 -2.440700
								CHANNELS 3 Zrotation Yrotation Xrotation
								JOINT LeftForeArm
								{
									OFFSET 27.459126 0.000000 0.000000
									CHANNELS 3 Zrotation Yrotation Xrotation
									End Site #name: LeftHand
									{
										OFFSET 21.306858 0.000000 0.000000
									}
								}
							}
						}
					}
					JOINT Spine2_RightShoulder
					{
						OFFSET 0.000000 0.000000 0.000000
						CHANNELS 3 Zrotation Yrotation Xrotation
						JOINT RightShoulder
						{
							OFFSET -5.580300 6.737503 -0.344400
							CHANNELS 3 Zrotation Yrotation Xrotation
							JOINT RightArm
							{
								OFFSET -10.679335 -0.188484 -2.383900
								CHANNELS 3 Zrotation Yrotation Xrotation
								JOINT RightForeArm
								{
									OFFSET -27.503529 0.000000 0.000000
									CHANNELS 3 Zrotation Yrotation Xrotation
									End Site #name: RightHand
									{
										OFFSET -21.306808 0.000000 0.000000
									}
								}
							}
						}
					}
				}
			}
		}
	}
	JOINT Hips_LeftUpLeg
	{
		OFFSET 0.000000 0.000000 0.000000
		CHANNELS 3 Zrotation Yrotation Xrotation
		JOINT LeftUpLeg
		{
			OFFSET 6.857700 -6.739601 0.312100
			CHANNELS 3 Zrotation Yrotation Xrotation
			JOINT LeftLeg
			{
				OFFSET -0.367590 -34.731552 -4.572400
				CHANNELS 3 Zrotation Yrotation Xrotation
				End Site #name: LeftFoot
				{
					OFFSET 0.367590 -34.656704 -6.067400
				}
			}
		}
	}
	JOINT Hips_RightUpLeg
	{
		OFFSET 0.000000 0.000000 0.000000
		CHANNELS 3 Zrotation Yrotation Xrotation
		JOINT RightUpLeg
		{
			OFFSET -6.876100 -6.733299 0.301000
			CHANNELS 3 Zrotation Yrotation Xrotation
			JOINT RightLeg
			{
				OFFSET 0.347353 -34.795158 -4.515900
				CHANNELS 3 Zrotation Yrotation Xrotation
				End Site #name: RightFoot
				{
					OFFSET -0.347353 -34.589367 -6.070300
				}
			}
		}
	}
}
MOTION
Frames: 6
Frame Time: 0.041667
0.029908 0.036664 -0.029514 -4.717589 0.337382 -4.520864 0.000000 0.000000 0.000000 2.267088 1.652802 17.894412 0.613253 1.153080 1.563848 0.000000 0.000000 0.000000 0.641892 0.923973 -0.074715 1.440978 -0.720715 4.999219 0.631717 0.505378 1.497914 -8.227932 -10.282083 1.852431 -61.742153 -0.719661 18.770511 0.675905 -25.258854 0.023975 1.348311 0.849956 1.726760 6.998634 -6.411068 0.085672 72.244602 8.844098 33.700930 -0.168591 26.919237 0.834268 0.000000 0.000000 0.000000 7.306771 7.918896 -77.408265 5.636624 -4.089871 72.465963 -0.000000 0.000000 0.000000 -5.258301 -6.926399 -65.176919 -1.058231 0.434299 69.512968 
0.036148 0.085283 -0.092324 -4.655329 1.063512 -2.450789 0.000000 0.000000 0.000000 2.174145 0.233338 14.914019 0.605657 0.595359 1.316948 0.000000 0.000000 0.000000 0.806473 0.666999 0.699011 1.053664 -0.839327 4.715095 0.904424 0.690355 1.572466 -7.707166 -6.525089 0.340670 -66.313416 -3.691188 10.779004 0.045123 -29.858795 0.773789 0.464304 0.563674 1.374951 7.845342 -7.268264 -0.166889 73.468574 11.586077 28.408189 0.036301 27.276872 0.449594 0.000000 0.000000 -0.000000 7.161748 8.885599 -79.974618 6.008235 -3.378579 71.808185 -0.000000 0.000000 0.000000 -4.416412 -7.701860 -69.810759 -0.937693 0.519373 70.223677 
0.040234 0.076315 -0.149980 -4.295611 1.952841 -1.687534 0.000000 0.000000 -0.000000 2.921523 -0.123578 15.874372 0.604422 0.619337 1.379983 0.000000 0.000000 0.000000 0.787350 0.481273 0.789471 1.522897 -0.044795 4.241506 0.837404 0.679694 1.407958 -8.568419 -5.021192 -0.093774 -64.780225 -2.109801 12.941843 0.096936 -30.047807 0.622784 0.562029 0.580094 1.488931 7.258938 -7.498459 -0.278623 72.777481 13.014642 27.063444 0.131641 29.034635 0.073603 -0.000000 0.000000 0.000000 7.122129 8.023817 -80.852737 5.622358 -3.823008 70.989759 -0.000000 0.000000 -0.000000 -5.059854 -7.515478 -70.808306 -1.289545 0.256242 71.288109 
0.046299 0.060830 -0.205755 -4.226746 2.185387 -1.556604 0.000000 0.000000 0.000000 3.088637 0.301722 16.505238 0.607016 0.566807 1.669814 0.000000 0.000000 0.000000 0.903381 0.518422 0.842939 1.394923 -0.141154 5.070350 0.815494 0.564104 1.527904 -7.318407 -3.891690 -0.343337 -66.427812 -4.615635 11.692552 0.099970 -30.342994 0.634438 0.712710 0.575671 1.778152 7.180779 -7.682491 -0.334226 73.945271 14.744894 26.160276 0.074627 33.761124 -0.073306 -0.000000 0.000000 0.000000 7.010071 7.828193 -80.660615 5.497681 -3.993466 70.596905 -0.000000 0.000000 -0.000000 -5.074226 -7.840379 -71.668760 -1.032690 0.325767 72.326334 
0.057153 0.056106 -0.255043 -4.209908 2.313375 -1.586746 0.000000 0.000000 0.000000 3.113158 0.456465 17.249276 0.560667 0.522077 1.748527 0.000000 0.000000 0.000000 0.888814 0.512759 0.905753 1.431941 -0.220493 5.867575 0.748069 0.460043 1.517073 -7.100256 -3.403822 -0.353244 -67.035616 -6.076520 9.779422 0.121735 -31.628513 0.593293 0.712313 0.557714 2.008423 7.515718 -7.711418 -0.430323 74.973952 15.916098 25.890466 0.014528 37.516618 -0.153662 -0.000000 0.000000 0.000000 6.959032 7.789403 -80.613755 5.395228 -3.926464 70.583445 -0.000000 0.000000 -0.000000 -5.145495 -7.977370 -72.162855 -0.924690 0.319205 73.011024 
0.069930 0.058966 -0.299600 -4.234047 2.284009 -1.645862 -0.000000 0.000000 0.000000 3.134354 0.309816 17.859290 0.535746 0.487611 1.772270 0.000000 0.000000 0.000000 0.849994 0.483300 0.966589 1.444824 -0.185523 6.300917 0.717388 0.413715 1.558994 -7.327250 -3.409918 -0.325024 -66.971703 -6.408972 9.522791 0.137004 -32.660608 0.550023 0.674141 0.521907 2.087255 7.762019 -7.416018 -0.393879 75.335991 16.712210 25.489889 -0.033706 39.761206 -0.193746 -0.000000 0.000000 -0.000000 7.035961 7.921343 -80.596309 5.348134 -3.884877 70.765291 -0.000000 0.000000 -0.000000 -5.224028 -8.017741 -72.269020 -0.851756 0.285842 73.280861 
